<svg xmlns="http://www.w3.org/2000/svg" version="1.1" xmlns:xlink="http://www.w3.org/1999/xlink" xmlns:svgjs="http://svgjs.dev/svgjs" viewBox="0 0 43.949036520375195 43.949036520375195"><g transform="matrix(0.8571428571428572,0,0,0.8571428571428572,21.23093274818983,37.24203130317874)"><g transform="matrix(1,0,0,1,0,0)" clip-path="url(#SvgjsClipPath98238)"><g clip-path="url(#SvgjsClipPath982365692a01e-9c2e-4960-bcd5-1d76fe5118e1)"><path d=" M 0.08978251540645488 -8.267182317449357 C 0.08978251540645488 -3.4252007846932955 -3.8354182692868513 0.5 -8.677399802042908 0.5 C -13.519381334798965 0.5 -17.44458211949227 -3.4252007846932955 -17.44458211949227 -8.267182317449357 C -17.44458211949227 -13.109163850205423 -13.519381334798965 -17.034364634898722 -8.677399802042908 -17.034364634898722 C -3.8354182692868513 -17.034364634898722 0.08978251540645488 -13.109163850205423 0.08978251540645488 -8.267182317449357 Z" fill="#225777" transform="matrix(1,0,0,1,0,0)" fill-rule="nonzero"></path></g><g clip-path="url(#SvgjsClipPath982365692a01e-9c2e-4960-bcd5-1d76fe5118e1)"><path d=" M -8.051172493653665 -17.014163753982945 C -1.4656853151087503 -16.529342612004175 4.251163984057534 -21.47855843637075 4.735985126036304 -28.043844733999883 L 11.099262614507616 -21.68056724552857 C 4.513775435962703 -21.195746103549805 -0.41523950748809213 -15.478896804383517 0.06958163449067456 -8.893409625838604 L -8.051172493653665 -17.014163753982945 Z" fill="#225777" transform="matrix(1,0,0,1,0,0)" fill-rule="nonzero"></path></g><g clip-path="url(#SvgjsClipPath982365692a01e-9c2e-4960-bcd5-1d76fe5118e1)"><path d=" M 16.593902223600306 -27.59942535385268 C 16.593902223600306 -24.31937334779213 13.934895240420971 -21.66036636461279 10.654843234360417 -21.66036636461279 C 7.374791228299863 -21.66036636461279 4.715784245120524 -24.31937334779213 4.715784245120524 -27.59942535385268 C 4.715784245120524 -30.87947735991324 7.374791228299863 -33.53848434309258 10.654843234360417 -33.53848434309258 C 13.934895240420971 -33.53848434309258 16.593902223600306 -30.87947735991324 16.593902223600306 -27.59942535385268 Z" fill="#225777" transform="matrix(1,0,0,1,0,0)" fill-rule="nonzero"></path></g><g clip-path="url(#SvgjsClipPath982365692a01e-9c2e-4960-bcd5-1d76fe5118e1)"><path d=" M -8.051172493653665 -17.014163753982945 C -1.4656853151087503 -16.529342612004175 4.251163984057534 -21.47855843637075 4.735985126036304 -28.043844733999883 L 11.099262614507616 -21.68056724552857 C 4.513775435962703 -21.195746103549805 -0.41523950748809213 -15.478896804383517 0.06958163449067456 -8.893409625838604 L -8.051172493653665 -17.014163753982945 Z" fill="#225777" transform="matrix(1,0,0,1,0,0)" fill-rule="nonzero"></path></g><g clip-path="url(#SvgjsClipPath982365692a01e-9c2e-4960-bcd5-1d76fe5118e1)"><path d=" M -8.940011253948072 -23.51884740886473 C -12.434763652378347 -23.51884740886473 -15.242686099672039 -26.3469707370742 -15.242686099672039 -29.821522254588697 C -15.242686099672039 -33.29607377210319 -12.414562771462567 -36.124197100312664 -8.940011253948072 -36.124197100312664 C -5.46545973643358 -36.124197100312664 -2.6373364082241064 -33.31627465301897 -2.6373364082241064 -29.821522254588697 C -2.6373364082241064 -26.32676985615842 -5.46545973643358 -23.51884740886473 -8.940011253948072 -23.51884740886473 Z" fill="#173054" transform="matrix(1,0,0,1,0,0)" fill-rule="nonzero"></path></g><g clip-path="url(#SvgjsClipPath982365692a01e-9c2e-4960-bcd5-1d76fe5118e1)"><path d=" M 19.179614980820393 -8.0045708655442 C 19.179614980820393 -4.5236993489085116 16.357811651732117 -1.7018960198202322 12.87694013509643 -1.7018960198202322 C 9.396068618460738 -1.7018960198202322 6.5742652893724625 -4.5236993489085116 6.5742652893724625 -8.0045708655442 C 6.5742652893724625 -11.48544238217989 9.396068618460738 -14.307245711268163 12.87694013509643 -14.307245711268163 C 16.357811651732117 -14.307245711268163 19.179614980820393 -11.48544238217989 19.179614980820393 -8.0045708655442 Z" fill="#002540" transform="matrix(1,0,0,1,0,0)" fill-rule="nonzero"></path></g></g><g><path d=" M 0.10455 0.0016499999999999987 L 0.06735000000000001 0.0738 L 0.06735000000000001 0.10740000000000001 L 0.0378 0.10740000000000001 L 0.0378 0.0738 L 0.0006000000000000001 0.0016499999999999987 L 0.0342 0.0016499999999999987 L 0.05280000000000001 0.04245 L 0.0714 0.0016499999999999987 L 0.10455 0.0016499999999999987 M 0.1367983154296875 0.10147500000000001 Q 0.12434831542968752 0.0945 0.11707331542968752 0.082125 Q 0.10979831542968752 0.06975 0.10979831542968752 0.054150000000000004 Q 0.10979831542968752 0.03855 0.11707331542968752 0.026175000000000004 Q 0.12434831542968752 0.013800000000000007 0.1367983154296875 0.006900000000000003 Q 0.14924831542968753 0 0.16409831542968753 0 Q 0.17909831542968752 0 0.19147331542968754 0.006900000000000003 Q 0.2038483154296875 0.013800000000000007 0.21104831542968752 0.026175000000000004 Q 0.21824831542968753 0.03855 0.21824831542968753 0.054150000000000004 Q 0.21824831542968753 0.06975 0.21104831542968752 0.082125 Q 0.2038483154296875 0.0945 0.19139831542968752 0.10147500000000001 Q 0.17894831542968753 0.10845 0.16409831542968753 0.10845 Q 0.14924831542968753 0.10845 0.1367983154296875 0.10147500000000001 M 0.18187331542968754 0.0738 Q 0.18839831542968752 0.06645000000000001 0.18839831542968752 0.054150000000000004 Q 0.18839831542968752 0.041550000000000004 0.18187331542968754 0.034275 Q 0.17534831542968754 0.026999999999999996 0.16409831542968753 0.026999999999999996 Q 0.15269831542968754 0.026999999999999996 0.14624831542968753 0.034275 Q 0.13979831542968751 0.041550000000000004 0.13979831542968751 0.054150000000000004 Q 0.13979831542968751 0.0666 0.14624831542968753 0.073875 Q 0.15269831542968754 0.08115 0.16409831542968753 0.08115 Q 0.17534831542968754 0.08115 0.18187331542968754 0.0738 M 0.2600964111328125 0.0016499999999999987 L 0.2600964111328125 0.063 Q 0.2600964111328125 0.07155 0.2640714111328125 0.0762 Q 0.2680464111328125 0.08085 0.2761464111328125 0.08085 Q 0.2842464111328125 0.08085 0.2883714111328125 0.076125 Q 0.29249641113281255 0.0714 0.29249641113281255 0.063 L 0.29249641113281255 0.0016499999999999987 L 0.32189641113281253 0.0016499999999999987 L 0.32189641113281253 0.063 Q 0.32189641113281253 0.07755000000000001 0.31574641113281254 0.08782500000000001 Q 0.30959641113281255 0.0981 0.29902141113281255 0.103275 Q 0.28844641113281255 0.10845 0.27554641113281253 0.10845 Q 0.2626464111328125 0.10845 0.2525214111328125 0.103275 Q 0.24239641113281252 0.0981 0.23662141113281254 0.0879 Q 0.23084641113281254 0.0777 0.23084641113281254 0.063 L 0.23084641113281254 0.0016499999999999987 L 0.2600964111328125 0.0016499999999999987 M 0.3914926757812501 0.10740000000000001 L 0.37049267578125006 0.0684 L 0.36734267578125007 0.0684 L 0.36734267578125007 0.10740000000000001 L 0.3379426757812501 0.10740000000000001 L 0.3379426757812501 0.0016499999999999987 L 0.3842926757812501 0.0016499999999999987 Q 0.3970426757812501 0.0016499999999999987 0.4058926757812501 0.006074999999999997 Q 0.41474267578125007 0.010499999999999995 0.4192426757812501 0.018225000000000005 Q 0.4237426757812501 0.02595 0.4237426757812501 0.03555 Q 0.4237426757812501 0.04635 0.41781767578125006 0.054525000000000004 Q 0.4118926757812501 0.0627 0.4004926757812501 0.06615000000000001 L 0.42434267578125007 0.10740000000000001 L 0.3914926757812501 0.10740000000000001 M 0.36734267578125007 0.0483 L 0.3818926757812501 0.0483 Q 0.3878926757812501 0.0483 0.3908926757812501 0.045450000000000004 Q 0.3938926757812501 0.0426 0.3938926757812501 0.0372 Q 0.3938926757812501 0.032100000000000004 0.3908176757812501 0.029175000000000006 Q 0.3877426757812501 0.026249999999999996 0.3818926757812501 0.026249999999999996 L 0.36734267578125007 0.026249999999999996 L 0.36734267578125007 0.0483 M 0.46836613769531255 0.026475 Q 0.47489113769531255 0.014249999999999999 0.48689113769531256 0.007425000000000001 Q 0.49889113769531257 0.0006000000000000033 0.5144911376953126 0.0006000000000000033 Q 0.5342911376953126 0.0006000000000000033 0.5477911376953126 0.011175000000000004 Q 0.5612911376953126 0.021750000000000005 0.5651911376953126 0.039900000000000005 L 0.5335411376953125 0.039900000000000005 Q 0.5306911376953126 0.0339 0.5256661376953126 0.03075 Q 0.5206411376953126 0.0276 0.5140411376953126 0.0276 Q 0.5038411376953126 0.0276 0.4977661376953126 0.034875 Q 0.4916911376953126 0.04215000000000001 0.4916911376953126 0.0543 Q 0.4916911376953126 0.0666 0.4977661376953126 0.073875 Q 0.5038411376953126 0.08115 0.5140411376953126 0.08115 Q 0.5206411376953126 0.08115 0.5256661376953126 0.07800000000000001 Q 0.5306911376953126 0.07485 0.5335411376953125 0.06885000000000001 L 0.5651911376953126 0.06885000000000001 Q 0.5612911376953126 0.08700000000000001 0.5477911376953126 0.09757500000000001 Q 0.5342911376953126 0.10815000000000001 0.5144911376953126 0.10815000000000001 Q 0.49889113769531257 0.10815000000000001 0.48689113769531256 0.10132500000000001 Q 0.47489113769531255 0.0945 0.46836613769531255 0.08227500000000001 Q 0.4618411376953126 0.07005 0.4618411376953126 0.0543 Q 0.4618411376953126 0.0387 0.46836613769531255 0.026475 M 0.6023904785156251 0.10147500000000001 Q 0.589940478515625 0.0945 0.582665478515625 0.082125 Q 0.5753904785156251 0.06975 0.5753904785156251 0.054150000000000004 Q 0.5753904785156251 0.03855 0.582665478515625 0.026175000000000004 Q 0.589940478515625 0.013800000000000007 0.6023904785156251 0.006900000000000003 Q 0.6148404785156251 0 0.6296904785156251 0 Q 0.6446904785156251 0 0.657065478515625 0.006900000000000003 Q 0.669440478515625 0.013800000000000007 0.676640478515625 0.026175000000000004 Q 0.6838404785156251 0.03855 0.6838404785156251 0.054150000000000004 Q 0.6838404785156251 0.06975 0.676640478515625 0.082125 Q 0.669440478515625 0.0945 0.6569904785156251 0.10147500000000001 Q 0.644540478515625 0.10845 0.6296904785156251 0.10845 Q 0.6148404785156251 0.10845 0.6023904785156251 0.10147500000000001 M 0.6474654785156251 0.0738 Q 0.6539904785156251 0.06645000000000001 0.6539904785156251 0.054150000000000004 Q 0.6539904785156251 0.041550000000000004 0.6474654785156251 0.034275 Q 0.6409404785156251 0.026999999999999996 0.6296904785156251 0.026999999999999996 Q 0.618290478515625 0.026999999999999996 0.6118404785156251 0.034275 Q 0.6053904785156251 0.041550000000000004 0.6053904785156251 0.054150000000000004 Q 0.6053904785156251 0.0666 0.6118404785156251 0.073875 Q 0.618290478515625 0.08115 0.6296904785156251 0.08115 Q 0.6409404785156251 0.08115 0.6474654785156251 0.0738 M 0.8203385742187501 0.0016499999999999987 L 0.8203385742187501 0.10740000000000001 L 0.7909385742187501 0.10740000000000001 L 0.7909385742187501 0.04905 L 0.7709885742187501 0.10740000000000001 L 0.7463885742187502 0.10740000000000001 L 0.7262885742187501 0.048600000000000004 L 0.7262885742187501 0.10740000000000001 L 0.6968885742187501 0.10740000000000001 L 0.6968885742187501 0.0016499999999999987 L 0.7324385742187501 0.0016499999999999987 L 0.7589885742187501 0.07035 L 0.7849385742187501 0.0016499999999999987 L 0.8203385742187501 0.0016499999999999987 M 0.9161132080078126 0.05437500000000001 Q 0.9116882080078126 0.06225000000000001 0.9027632080078126 0.066975 Q 0.8938382080078127 0.07170000000000001 0.8809382080078126 0.07170000000000001 L 0.8663882080078127 0.07170000000000001 L 0.8663882080078127 0.10740000000000001 L 0.8369882080078126 0.10740000000000001 L 0.8369882080078126 0.0016499999999999987 L 0.8809382080078126 0.0016499999999999987 Q 0.8936882080078127 0.0016499999999999987 0.9026132080078126 0.006150000000000003 Q 0.9115382080078126 0.010650000000000007 0.9160382080078127 0.018600000000000005 Q 0.9205382080078126 0.026550000000000004 0.9205382080078126 0.0369 Q 0.9205382080078126 0.04650000000000001 0.9161132080078126 0.05437500000000001 M 0.8905382080078126 0.0369 Q 0.8905382080078126 0.025349999999999998 0.8780882080078126 0.025349999999999998 L 0.8663882080078127 0.025349999999999998 L 0.8663882080078127 0.0483 L 0.8780882080078126 0.0483 Q 0.8905382080078126 0.0483 0.8905382080078126 0.0369 M 0.9991361572265627 0.09015000000000001 L 0.9616361572265626 0.09015000000000001 L 0.9559361572265627 0.10740000000000001 L 0.9250361572265626 0.10740000000000001 L 0.9635861572265626 0.0016499999999999987 L 0.9974861572265626 0.0016499999999999987 L 1.0358861572265627 0.10740000000000001 L 1.0048361572265627 0.10740000000000001 L 0.9991361572265627 0.09015000000000001 M 0.9917861572265627 0.06765000000000002 L 0.9803861572265626 0.03345000000000001 L 0.9691361572265627 0.06765000000000002 L 0.9917861572265627 0.06765000000000002 M 1.1432868896484376 0.10740000000000001 L 1.1138868896484377 0.10740000000000001 L 1.0747368896484377 0.0483 L 1.0747368896484377 0.10740000000000001 L 1.0453368896484376 0.10740000000000001 L 1.0453368896484376 0.0016499999999999987 L 1.0747368896484377 0.0016499999999999987 L 1.1138868896484377 0.061500000000000006 L 1.1138868896484377 0.0016499999999999987 L 1.1432868896484376 0.0016499999999999987 L 1.1432868896484376 0.10740000000000001 M 1.2560890869140626 0.0016499999999999987 L 1.2188890869140627 0.0738 L 1.2188890869140627 0.10740000000000001 L 1.1893390869140628 0.10740000000000001 L 1.1893390869140628 0.0738 L 1.1521390869140626 0.0016499999999999987 L 1.1857390869140627 0.0016499999999999987 L 1.2043390869140627 0.04245 L 1.2229390869140626 0.0016499999999999987 L 1.2560890869140626 0.0016499999999999987 M 1.3913842529296876 0.10740000000000001 L 1.3619842529296877 0.10740000000000001 L 1.3228342529296877 0.0483 L 1.3228342529296877 0.10740000000000001 L 1.2934342529296876 0.10740000000000001 L 1.2934342529296876 0.0016499999999999987 L 1.3228342529296877 0.0016499999999999987 L 1.3619842529296877 0.061500000000000006 L 1.3619842529296877 0.0016499999999999987 L 1.3913842529296876 0.0016499999999999987 L 1.3913842529296876 0.10740000000000001 M 1.4749364501953126 0.09015000000000001 L 1.4374364501953127 0.09015000000000001 L 1.4317364501953127 0.10740000000000001 L 1.4008364501953128 0.10740000000000001 L 1.4393864501953126 0.0016499999999999987 L 1.4732864501953127 0.0016499999999999987 L 1.5116864501953127 0.10740000000000001 L 1.4806364501953126 0.10740000000000001 L 1.4749364501953126 0.09015000000000001 M 1.4675864501953126 0.06765000000000002 L 1.4561864501953128 0.03345000000000001 L 1.4449364501953128 0.06765000000000002 L 1.4675864501953126 0.06765000000000002 M 1.6445871826171876 0.0016499999999999987 L 1.6445871826171876 0.10740000000000001 L 1.6151871826171875 0.10740000000000001 L 1.6151871826171875 0.04905 L 1.5952371826171876 0.10740000000000001 L 1.5706371826171877 0.10740000000000001 L 1.5505371826171876 0.048600000000000004 L 1.5505371826171876 0.10740000000000001 L 1.5211371826171876 0.10740000000000001 L 1.5211371826171876 0.0016499999999999987 L 1.5566871826171875 0.0016499999999999987 L 1.5832371826171876 0.07035 L 1.6091871826171875 0.0016499999999999987 L 1.6445871826171876 0.0016499999999999987 M 1.6906368164062502 0.0252 L 1.6906368164062502 0.04245 L 1.7243868164062501 0.04245 L 1.7243868164062501 0.0648 L 1.6906368164062502 0.0648 L 1.6906368164062502 0.08385000000000001 L 1.72888681640625 0.08385000000000001 L 1.72888681640625 0.10740000000000001 L 1.66123681640625 0.10740000000000001 L 1.66123681640625 0.0016499999999999987 L 1.72888681640625 0.0016499999999999987 L 1.72888681640625 0.0252 L 1.6906368164062502 0.0252" fill="#173054" fill-rule="nonzero"></path></g><g></g></g><defs><clipPath id="SvgjsClipPath98238"><path d=" M -17.44458211949227 -36.124197100312664 h 36.624197100312664 v 36.624197100312664 h -36.624197100312664 Z"></path></clipPath><clipPath id="SvgjsClipPath982365692a01e-9c2e-4960-bcd5-1d76fe5118e1"><path d=" M -17.44458211949227 -36.124197100312664 L 19.179614980820393 -36.124197100312664 L 19.179614980820393 0.5 L -17.44458211949227 0.5 Z"></path></clipPath></defs></svg>